<mxfile host="drawio-plugin" modified="2025-01-14T08:24:27.070Z" agent="Mozilla/5.0 (Windows NT 10.0; Win64; x64) AppleWebKit/537.36 (KHTML, like Gecko) Chrome/122.0.0.0 Safari/537.36" etag="a9VPijBWEmYR5tGvCIeZ" version="22.1.22" type="embed">
  <diagram id="ZXV1xfavV0UUI3u41lQr" name="Page-1">
    <mxGraphModel dx="1054" dy="750" grid="1" gridSize="10" guides="1" tooltips="1" connect="1" arrows="1" fold="1" page="1" pageScale="1" pageWidth="850" pageHeight="1100" math="0" shadow="0">
      <root>
        <mxCell id="0" />
        <mxCell id="1" parent="0" />
        <mxCell id="4" value="" style="edgeStyle=orthogonalEdgeStyle;rounded=0;orthogonalLoop=1;jettySize=auto;html=1;" parent="1" source="2" target="3" edge="1">
          <mxGeometry relative="1" as="geometry" />
        </mxCell>
        <mxCell id="2" value="Province" style="rounded=0;whiteSpace=wrap;html=1;" parent="1" vertex="1">
          <mxGeometry x="30" y="200" width="120" height="60" as="geometry" />
        </mxCell>
        <mxCell id="3" value="&amp;nbsp; Tourist Atrractions in that provinc&lt;br&gt;&lt;ul&gt;&lt;li&gt;name&lt;/li&gt;&lt;li&gt;description&lt;/li&gt;&lt;li&gt;image&lt;/li&gt;&lt;li&gt;Address&amp;nbsp;&amp;nbsp;&lt;/li&gt;&lt;/ul&gt;" style="whiteSpace=wrap;html=1;rounded=0;align=left;" parent="1" vertex="1">
          <mxGeometry x="230" y="230" width="250" height="210" as="geometry" />
        </mxCell>
      </root>
    </mxGraphModel>
  </diagram>
</mxfile>
